<?xml version="1.0" standalone="no"?>
<!DOCTYPE svg PUBLIC "-//W3C//DTD SVG 20010904//EN"
 "http://www.w3.org/TR/2001/REC-SVG-20010904/DTD/svg10.dtd">
<svg version="1.0" xmlns="http://www.w3.org/2000/svg"
 width="612.000000pt" height="612.000000pt" viewBox="0 0 612.000000 612.000000"
 preserveAspectRatio="xMidYMid meet">
<metadata>
Created by potrace 1.14, written by Peter Selinger 2001-2017
</metadata>
<g transform="translate(0.000000,612.000000) scale(0.100000,-0.100000)"
fill="#000000" stroke="none">
<path d="M4170 5599 c-22 -22 -40 -43 -40 -46 0 -3 -16 -28 -35 -54 -19 -27
-35 -53 -35 -59 0 -5 -13 -24 -28 -42 -16 -18 -31 -41 -35 -50 -4 -10 -13 -18
-20 -18 -8 0 -22 -10 -30 -22 -12 -18 -18 -20 -25 -10 -12 18 -42 4 -42 -19 0
-10 -6 -19 -14 -19 -15 0 -30 27 -27 48 4 22 -41 4 -66 -26 -22 -26 -22 -26
-42 -7 -13 10 -21 13 -21 6 0 -6 7 -14 15 -17 22 -9 18 -34 -5 -34 -11 0 -20
-5 -20 -11 0 -8 -4 -8 -13 -1 -10 8 -24 8 -50 0 -36 -11 -37 -13 -34 -50 4
-38 3 -40 -44 -60 -42 -18 -46 -23 -32 -33 9 -7 24 -11 32 -10 9 1 10 0 4 -2
-22 -8 -10 -53 13 -53 8 0 14 -4 14 -9 0 -5 8 -8 17 -7 12 0 19 -7 21 -21 2
-13 4 -23 5 -23 1 0 17 4 34 9 20 6 35 6 38 0 4 -5 17 -6 31 -3 18 5 24 2 24
-11 0 -14 3 -15 15 -5 12 10 15 10 15 0 0 -24 -50 -99 -70 -105 -24 -8 -157
35 -265 86 -20 9 -195 61 -247 73 -49 11 -30 -1 50 -33 104 -43 180 -76 287
-126 50 -23 102 -46 115 -50 14 -4 30 -11 35 -15 6 -4 37 -13 70 -20 33 -7 64
-17 69 -21 19 -17 -145 -21 -374 -10 -433 21 -710 65 -962 155 -54 19 -98 30
-98 25 0 -6 -5 -7 -10 -4 -6 4 -8 11 -5 16 4 5 -6 14 -22 20 -15 5 -51 21 -79
35 -102 50 -170 40 -207 -30 -29 -55 -36 -255 -13 -363 51 -246 230 -381 526
-399 69 -5 98 -11 108 -22 6 -9 12 -14 12 -11 0 19 46 124 75 171 26 41 42 87
60 169 27 122 65 216 90 226 18 6 242 -15 287 -28 38 -11 128 -70 128 -84 0
-6 11 -21 25 -33 27 -23 31 -37 15 -47 -5 -3 -10 -1 -10 4 0 6 -7 11 -16 11
-10 0 -14 -6 -11 -15 4 -8 2 -17 -3 -20 -17 -10 -12 -48 5 -41 8 3 15 1 15 -3
0 -5 -7 -11 -15 -15 -37 -14 9 -81 64 -92 17 -4 31 -10 31 -15 0 -5 17 -9 37
-9 20 0 44 -7 54 -16 16 -15 20 -14 43 3 27 19 35 53 13 53 -7 0 -20 9 -30 20
-14 17 -15 21 -3 26 11 4 12 13 5 36 -7 25 -5 34 8 43 10 7 23 11 30 8 7 -3
13 2 13 11 0 16 2 16 29 0 28 -16 30 -16 60 5 17 12 31 18 31 12 0 -6 11 -11
25 -11 14 0 34 -9 45 -20 11 -11 22 -15 25 -10 13 21 22 8 23 -34 0 -52 8 -70
28 -62 8 3 14 -1 14 -10 0 -11 6 -15 20 -11 11 3 20 1 20 -4 0 -5 -5 -9 -10
-9 -6 0 -8 -11 -4 -27 9 -39 20 -48 39 -33 12 10 18 10 30 0 22 -18 19 -29
-10 -36 -27 -7 -34 -24 -11 -24 23 0 31 -22 13 -35 -19 -14 -22 -41 -7 -50 6
-4 8 -10 5 -15 -3 -4 2 -11 11 -14 8 -3 12 -10 9 -16 -3 -5 -2 -10 4 -10 7 0
7 -8 1 -26 -20 -51 26 -64 49 -14 10 25 16 28 27 19 11 -9 14 -9 14 0 0 7 5 9
11 6 5 -4 21 6 34 21 13 16 27 25 31 21 4 -4 14 -2 21 5 20 16 54 18 76 3 15
-11 16 -14 2 -25 -13 -11 -13 -14 0 -27 8 -8 15 -21 15 -29 0 -10 7 -13 25 -8
43 11 55 -10 55 -97 l0 -78 -37 -28 c-25 -19 -38 -24 -41 -15 -2 6 -8 12 -14
12 -7 0 -9 -25 -6 -71 5 -58 10 -75 32 -98 31 -32 34 -61 7 -61 -14 0 -18 -5
-14 -20 8 -29 31 -46 45 -32 19 19 26 14 33 -20 12 -60 16 -68 37 -68 28 0 88
63 88 92 0 13 6 30 13 37 10 11 7 12 -15 7 -20 -5 -28 -3 -28 8 0 10 -13 13
-50 11 -60 -3 -64 15 -7 28 38 9 47 26 24 45 -8 7 -18 7 -27 2 -21 -13 -62 -2
-82 22 -26 29 -22 45 11 46 34 1 64 15 104 48 16 13 39 24 51 24 32 0 46 19
46 64 0 31 7 47 30 71 l29 30 -20 32 c-14 22 -33 36 -59 43 -44 12 -75 40 -43
40 30 0 43 20 43 66 0 44 -17 104 -30 104 -13 0 -40 -48 -46 -83 -3 -17 -10
-51 -16 -74 -8 -33 -7 -51 5 -87 l16 -46 -24 17 c-14 10 -27 26 -30 36 -10 27
-55 77 -71 77 -25 0 -26 26 -5 73 12 25 21 50 21 55 0 4 18 19 40 31 22 12 47
33 55 45 38 58 143 87 228 62 83 -24 131 -76 158 -171 17 -59 27 -77 44 -81
14 -3 27 -20 37 -47 12 -29 17 -35 17 -20 1 25 16 39 26 23 4 -6 10 -8 15 -5
4 3 22 -17 39 -45 17 -27 35 -50 40 -50 5 0 13 -9 16 -20 3 -11 10 -20 15 -20
13 0 29 113 19 132 -13 23 -11 28 6 22 10 -4 16 3 20 23 6 27 25 96 48 176 9
30 8 46 -5 82 -13 33 -13 43 -4 39 8 -3 16 3 20 12 8 21 -14 114 -27 114 -5 0
-7 -7 -3 -15 3 -8 2 -15 -3 -15 -4 0 -8 21 -9 48 0 26 -6 60 -11 76 -6 15 -9
32 -6 37 4 5 0 6 -7 4 -9 -4 -21 8 -31 30 -10 20 -12 33 -6 29 13 -8 -4 26
-33 69 -11 15 -18 34 -15 41 3 8 -3 22 -14 32 -10 9 -19 30 -19 45 0 15 -6 34
-13 41 -8 7 -12 19 -9 26 2 6 0 12 -5 12 -5 0 -15 16 -22 35 -13 36 -33 41
-24 5 8 -29 -6 -24 -18 6 -5 15 -12 24 -16 21 -6 -6 -85 50 -91 66 -2 4 -21
26 -43 50 -21 23 -39 48 -39 55 0 7 -4 11 -9 8 -14 -9 -42 5 -34 17 4 7 0 8
-13 3 -10 -4 -15 -4 -12 0 11 10 -24 42 -54 49 -26 7 -33 16 -29 38 1 5 -3 6
-9 2 -5 -3 -10 -1 -10 4 0 6 -5 10 -12 9 -6 -2 -18 10 -26 25 -7 15 -23 32
-35 36 -12 5 -35 21 -50 35 -15 14 -32 26 -38 26 -5 0 -9 5 -9 11 0 5 -13 15
-30 20 -16 6 -30 15 -30 21 0 5 -4 7 -9 3 -5 -3 -15 10 -22 29 -7 19 -16 33
-20 31 -4 -3 -12 2 -19 10 -18 22 -25 19 -70 -26z m-240 -344 c0 -7 -7 -15
-15 -19 -15 -5 -22 24 -9 37 9 9 24 -2 24 -18z m-230 -75 c0 -5 -5 -10 -11
-10 -5 0 -7 5 -4 10 3 6 8 10 11 10 2 0 4 -4 4 -10z m-60 -10 c0 -5 -2 -10 -4
-10 -3 0 -8 5 -11 10 -3 6 -1 10 4 10 6 0 11 -4 11 -10z m140 -185 c0 -8 -4
-15 -9 -15 -13 0 -22 16 -14 24 11 11 23 6 23 -9z m603 -82 c36 -38 80 -79 96
-93 23 -19 31 -35 33 -65 l3 -40 -52 0 c-34 1 -58 7 -71 18 -12 11 -35 17 -68
17 -80 0 -87 10 -70 100 19 95 32 130 49 130 8 0 44 -30 80 -67z m737 -284 c0
-6 -4 -7 -10 -4 -5 3 -10 11 -10 16 0 6 5 7 10 4 6 -3 10 -11 10 -16z m-1640
-78 c0 -5 -9 -11 -21 -14 -15 -4 -20 -12 -17 -29 2 -15 -3 -24 -14 -26 -24 -5
-22 14 5 48 21 28 47 39 47 21z m1670 -72 c0 -6 -4 -7 -10 -4 -5 3 -10 11 -10
16 0 6 5 7 10 4 6 -3 10 -11 10 -16z m-1256 -68 c-12 -13 -28 45 -17 63 4 6
10 -5 14 -24 4 -19 6 -37 3 -39z m96 -70 c0 -12 -20 -25 -27 -18 -7 7 6 27 18
27 5 0 9 -4 9 -9z"/>
<path d="M4306 4898 c-11 -44 -7 -88 9 -88 8 0 15 8 15 18 0 9 4 23 9 31 14
22 41 -4 41 -40 0 -15 5 -31 10 -34 6 -4 10 8 10 27 0 26 -9 43 -38 71 -21 20
-41 37 -44 37 -3 0 -8 -10 -12 -22z"/>
<path d="M4446 4795 c10 -8 24 -14 29 -14 6 0 1 6 -9 14 -11 8 -24 15 -30 15
-5 0 -1 -7 10 -15z"/>
<path d="M4290 4780 c0 -5 12 -10 28 -9 24 0 25 1 7 9 -27 12 -35 12 -35 0z"/>
<path d="M4368 4763 c7 -3 16 -2 19 1 4 3 -2 6 -13 5 -11 0 -14 -3 -6 -6z"/>
<path d="M3526 5425 c-16 -12 -17 -15 -4 -15 8 0 21 7 28 15 16 19 1 19 -24 0z"/>
<path d="M3395 5420 c-4 -6 -10 -8 -15 -5 -14 9 -75 -30 -79 -50 -2 -14 5 -12
35 13 28 23 40 28 46 19 5 -9 13 -6 30 11 19 18 20 22 6 22 -9 0 -20 -5 -23
-10z"/>
<path d="M3437 5416 c-10 -8 -14 -16 -10 -19 5 -3 14 3 21 14 14 22 13 23 -11
5z"/>
<path d="M3370 5374 c0 -3 6 -12 14 -20 13 -12 15 -12 13 6 -1 17 -27 31 -27
14z"/>
<path d="M3449 5354 c-7 -9 -22 -20 -34 -24 -15 -7 -16 -9 -4 -9 20 -1 67 35
58 43 -3 4 -12 -1 -20 -10z"/>
<path d="M3505 5350 c-12 -19 -132 -80 -158 -80 -15 0 -27 -5 -27 -11 0 -25
116 24 173 72 17 16 29 28 25 29 -4 0 -10 -4 -13 -10z"/>
<path d="M3276 5342 c-13 -12 -5 -24 12 -18 14 5 13 3 -3 -10 -19 -15 -19 -16
-1 -12 10 1 25 12 32 23 12 18 11 20 -11 21 -13 1 -26 -1 -29 -4z"/>
<path d="M3345 5319 c-11 -17 1 -21 15 -4 8 9 8 15 2 15 -6 0 -14 -5 -17 -11z"/>
<path d="M3750 5285 c0 -8 2 -15 4 -15 2 0 6 7 10 15 3 8 1 15 -4 15 -6 0 -10
-7 -10 -15z"/>
<path d="M3680 5259 c0 -5 5 -7 10 -4 6 3 10 8 10 11 0 2 -4 4 -10 4 -5 0 -10
-5 -10 -11z"/>
<path d="M4818 5248 c28 -31 31 -59 2 -33 -19 17 -20 17 -20 -1 1 -10 21 -41
46 -69 l45 -50 -4 35 c-2 19 -7 44 -11 55 -4 11 -12 32 -18 48 -6 15 -14 27
-18 27 -5 0 -17 3 -27 7 -15 5 -15 2 5 -19z"/>
<path d="M3550 5241 c0 -10 19 -25 25 -20 1 2 -3 10 -11 17 -8 7 -14 8 -14 3z"/>
<path d="M3500 5216 c0 -9 -5 -16 -11 -16 -5 0 -7 -4 -4 -10 11 -17 -5 -32
-21 -19 -11 9 -14 7 -14 -10 0 -20 9 -25 38 -22 6 1 12 -3 12 -9 0 -5 5 -10
10 -10 7 0 7 7 -1 21 -9 18 -8 24 5 31 20 11 20 25 1 44 -13 14 -15 14 -15 0z"/>
<path d="M3397 5137 c-11 -29 -9 -43 4 -30 6 6 9 19 7 29 -3 18 -4 18 -11 1z"/>
<path d="M3420 5120 c0 -5 5 -10 10 -10 6 0 10 5 10 10 0 6 -4 10 -10 10 -5 0
-10 -4 -10 -10z"/>
<path d="M3370 5059 c0 -5 5 -7 10 -4 6 3 10 8 10 11 0 2 -4 4 -10 4 -5 0 -10
-5 -10 -11z"/>
<path d="M895 4410 c-4 -6 7 -10 27 -9 27 0 30 2 13 9 -27 12 -33 12 -40 0z"/>
<path d="M909 4342 c-7 -17 -9 -148 -7 -358 l3 -331 47 -32 c26 -17 50 -31 52
-31 10 0 6 503 -5 620 -11 128 -17 141 -62 154 -13 3 -21 -3 -28 -22z"/>
<path d="M3168 4273 c-31 -3 -48 -9 -48 -17 0 -15 -48 -41 -69 -37 -8 1 -24
-2 -35 -8 -32 -16 -79 -34 -101 -38 -39 -7 -165 -162 -165 -203 0 -20 -8 -30
-35 -43 -20 -9 -42 -17 -50 -17 -25 0 -17 -28 21 -70 25 -27 34 -45 30 -57 -5
-13 0 -11 18 6 24 23 26 23 32 5 15 -45 66 -150 81 -166 13 -15 14 -20 2 -34
-11 -14 -10 -18 6 -27 11 -7 34 -14 50 -17 25 -4 32 -11 39 -43 16 -65 6 -71
-123 -77 -93 -4 -114 -8 -122 -22 -6 -10 -16 -18 -24 -18 -8 0 -19 -9 -25 -20
-8 -16 -6 -21 12 -32 13 -6 41 -22 63 -35 22 -13 48 -26 57 -29 10 -3 20 -15
23 -25 7 -23 25 -25 25 -4 0 8 9 15 20 15 13 0 18 -5 14 -15 -4 -8 -2 -15 4
-15 5 0 12 7 16 15 4 11 13 14 30 9 19 -4 33 4 73 44 27 27 60 71 72 97 12 27
31 55 42 64 20 16 20 17 -11 50 l-30 35 29 30 c29 31 43 78 45 150 1 23 -4 41
-11 43 -7 3 -13 -2 -13 -10 0 -8 -7 -20 -16 -28 -8 -7 -13 -21 -11 -31 8 -31
-15 -98 -41 -118 -13 -11 -36 -20 -51 -20 -32 0 -86 32 -101 60 -12 22 -11 22
19 -1 36 -26 49 -21 28 13 -28 42 -40 107 -27 139 7 16 9 37 5 46 -5 10 -7 23
-6 30 3 19 -16 24 -44 11 -40 -18 -54 4 -60 95 l-5 76 34 26 c38 29 46 31 46
11 0 -8 15 -31 34 -51 19 -20 36 -44 38 -53 2 -9 10 -18 18 -18 8 -1 30 -8 48
-15 23 -10 32 -20 32 -37 0 -12 7 -25 15 -28 10 -4 12 -15 8 -35 -4 -24 -1
-30 18 -38 13 -5 26 -7 29 -6 3 2 4 24 2 50 -4 39 -8 48 -29 56 -20 7 -24 14
-19 32 3 12 6 30 6 40 0 9 5 17 10 17 6 0 10 -9 10 -19 0 -33 19 -34 46 -1 35
42 61 53 111 51 38 -1 44 2 58 29 9 16 22 30 30 30 8 0 15 6 15 13 0 16 -62
21 -106 8 -21 -6 -41 -4 -63 5 -18 8 -37 12 -41 9 -11 -7 -40 5 -40 16 0 5 9
9 20 9 10 0 27 8 37 18 27 28 133 62 191 62 53 0 75 12 44 25 -25 11 -41 15
-100 22 -29 3 -55 10 -58 14 -3 5 -11 8 -17 7 -7 -1 -33 -3 -59 -5z m17 -193
c-3 -5 -17 -10 -31 -10 -13 0 -24 5 -24 10 0 6 14 10 31 10 17 0 28 -4 24 -10z"/>
<path d="M3678 4203 c6 -2 18 -2 25 0 6 3 1 5 -13 5 -14 0 -19 -2 -12 -5z"/>
<path d="M3432 4166 c-95 -18 -178 -38 -185 -45 -15 -16 27 -12 168 19 296 64
307 80 17 26z"/>
<path d="M4842 4080 c0 -14 2 -19 5 -12 2 6 2 18 0 25 -3 6 -5 1 -5 -13z"/>
<path d="M4944 4059 c-3 -6 -1 -16 5 -22 8 -8 11 -5 11 11 0 24 -5 28 -16 11z"/>
<path d="M4717 4013 c-3 -5 -14 -38 -26 -76 -11 -37 -25 -76 -31 -87 -12 -23
-67 -59 -120 -80 -19 -7 -46 -25 -60 -38 l-25 -25 25 6 c14 3 35 8 47 10 43
11 120 70 149 116 48 77 80 181 55 181 -6 0 -12 -3 -14 -7z"/>
<path d="M4916 3985 c8 -34 12 -41 20 -33 3 4 -2 19 -10 35 l-16 28 6 -30z"/>
<path d="M4084 3975 c-7 -27 -19 -33 -27 -12 -4 9 -8 8 -16 -3 -8 -12 -5 -17
17 -27 20 -8 28 -8 31 0 2 6 14 19 25 29 18 15 19 19 6 28 -23 15 -29 12 -36
-15z"/>
<path d="M845 3939 c-4 -28 -4 -100 0 -160 6 -86 10 -109 22 -109 11 0 13 7 9
28 -3 15 -7 87 -8 160 -1 136 -11 170 -23 81z"/>
<path d="M4910 3924 c0 -14 3 -14 15 -4 8 7 15 14 15 16 0 2 -7 4 -15 4 -8 0
-15 -7 -15 -16z"/>
<path d="M3956 3921 c-4 -7 -5 -15 -2 -18 9 -9 19 4 14 18 -4 11 -6 11 -12 0z"/>
<path d="M4110 3912 c0 -10 7 -27 16 -38 15 -18 15 -18 10 6 -3 14 -6 31 -6
38 0 6 -4 12 -10 12 -5 0 -10 -8 -10 -18z"/>
<path d="M4034 3896 c4 -18 1 -29 -14 -39 -11 -7 -17 -17 -14 -20 4 -4 1 -13
-5 -21 -7 -8 -10 -20 -6 -27 4 -6 2 -15 -5 -19 -8 -5 -10 -18 -5 -39 7 -35 25
-42 25 -10 0 11 4 18 9 15 13 -9 2 -44 -17 -51 -10 -4 -22 1 -29 11 -17 23
-39 4 -28 -23 13 -31 11 -93 -3 -93 -7 0 -15 6 -18 14 -3 8 -12 12 -20 9 -10
-4 -13 -14 -8 -37 3 -19 -1 -57 -11 -89 -9 -31 -14 -61 -11 -65 3 -5 -6 -15
-19 -22 -14 -7 -27 -21 -30 -30 -3 -9 -15 -16 -28 -16 -17 1 -23 -5 -25 -26
-3 -28 -22 -40 -22 -15 -1 6 -9 2 -19 -10 -11 -13 -22 -23 -24 -23 -3 0 -7 10
-9 23 -3 20 -5 19 -25 -13 -18 -29 -23 -32 -29 -17 -3 9 -10 17 -15 17 -6 0
-5 -9 1 -21 13 -24 4 -40 -11 -19 -7 11 -9 6 -7 -20 2 -26 -1 -35 -12 -35 -10
0 -14 8 -12 27 2 14 -2 29 -7 33 -6 3 -11 -1 -11 -10 0 -9 -4 -13 -10 -10 -5
3 -10 15 -10 26 0 10 -4 19 -10 19 -14 0 -12 -20 5 -50 8 -14 14 -38 15 -53 0
-24 -3 -27 -21 -22 -14 5 -25 2 -30 -6 -6 -10 -9 -8 -9 8 0 12 5 25 11 28 7 5
5 13 -5 24 -9 10 -12 22 -7 30 5 7 6 21 4 32 -4 15 -8 16 -24 6 -16 -10 -20
-23 -19 -72 2 -78 -10 -118 -30 -105 -8 6 -10 10 -3 10 6 0 14 19 18 42 6 34
4 44 -11 56 -13 10 -15 16 -6 19 14 6 16 33 2 33 -5 0 -10 -7 -10 -15 0 -8 -5
-15 -11 -15 -7 0 -9 -10 -5 -26 4 -15 9 -40 12 -58 l5 -31 -18 28 c-10 15 -24
27 -32 27 -12 0 -12 -3 -3 -12 18 -18 15 -36 -7 -43 -10 -3 -21 -15 -24 -27
-11 -39 -106 -4 -107 40 0 6 -5 12 -10 12 -6 0 -15 11 -20 25 -5 14 -14 25
-19 25 -19 0 -22 -20 -6 -50 9 -17 14 -34 11 -39 -3 -4 6 -14 19 -21 14 -7 25
-17 25 -22 0 -5 -18 1 -41 14 -31 17 -42 19 -48 10 -6 -10 -11 -10 -21 2 -7
10 -21 14 -34 10 -14 -3 -28 2 -39 14 -12 13 -28 18 -57 15 -22 -2 -40 1 -40
6 0 5 -12 12 -26 15 -49 13 -72 -34 -34 -69 14 -13 19 -30 19 -64 -1 -78 14
-110 47 -97 16 6 16 8 -1 25 -16 19 -15 20 32 27 26 4 53 14 59 22 6 9 25 15
43 15 17 0 31 5 31 10 0 5 8 6 18 2 9 -3 21 -7 27 -8 13 -3 46 -76 43 -95 -2
-8 3 -17 11 -20 10 -3 13 2 9 21 -3 15 -1 24 3 21 11 -6 12 -78 2 -88 -11 -10
-11 -49 -1 -69 6 -13 5 -24 -4 -35 -12 -15 -11 -16 5 -3 15 12 20 12 27 1 5
-7 16 -10 26 -6 18 6 18 6 1 -8 -11 -8 -25 -12 -33 -9 -8 3 -14 1 -14 -5 0 -6
6 -12 13 -15 7 -2 -6 -23 -35 -55 -33 -34 -48 -60 -48 -78 0 -23 -2 -25 -17
-13 -14 13 -16 11 -11 -13 3 -18 1 -25 -7 -22 -8 3 -15 -10 -19 -37 -7 -41 -7
-42 -22 -21 -8 12 -13 31 -9 41 4 13 0 20 -14 24 -15 4 -24 -3 -35 -28 -9 -18
-22 -38 -31 -45 -17 -14 -19 -7 -5 20 9 16 8 18 -5 14 -8 -4 -22 -1 -30 6 -22
18 -35 -24 -21 -64 14 -42 14 -42 30 -20 19 26 32 10 18 -22 -10 -20 -9 -28 3
-40 8 -8 20 -23 27 -32 26 -34 107 -92 159 -113 74 -29 327 -41 348 -15 7 9
20 16 28 16 12 0 13 -8 7 -42 -4 -24 -6 -72 -5 -108 2 -59 0 -66 -20 -75 -13
-5 -25 -16 -27 -24 -3 -8 0 -11 6 -8 5 4 15 0 22 -8 10 -13 11 -24 1 -58 -14
-46 -51 -93 -61 -77 -3 6 -18 -25 -33 -67 -102 -301 -133 -381 -212 -558 -13
-27 -26 -60 -29 -72 -7 -21 -6 -21 21 -9 15 8 49 16 76 19 44 4 49 2 69 -26
l22 -31 7 24 c4 14 7 50 8 81 1 31 11 94 22 140 12 46 22 93 23 104 0 12 9 21
22 23 12 2 24 12 27 23 6 21 27 26 27 6 0 -16 32 -18 42 -3 5 7 8 4 8 -6 0
-10 -6 -18 -14 -18 -8 0 -16 -7 -20 -15 -4 -12 3 -13 42 -8 61 8 78 23 101 97
34 106 118 337 161 441 70 172 106 237 160 290 l51 50 20 -24 c26 -31 24 -44
-10 -81 -33 -37 -119 -191 -149 -270 -11 -30 -46 -147 -77 -260 -66 -242 -97
-345 -124 -420 -26 -70 -27 -109 -3 -60 24 47 121 208 148 245 11 17 38 62 58
100 42 79 66 107 73 88 7 -18 23 -16 23 2 0 8 5 15 10 15 6 0 10 -9 10 -21 0
-18 3 -17 26 10 21 25 29 29 44 21 13 -7 21 -7 25 0 3 6 -3 14 -15 18 -19 7
-19 9 -6 27 14 18 15 18 16 3 0 -28 20 -21 20 7 0 18 5 25 18 25 23 0 52 30
52 53 0 9 5 17 10 17 6 0 10 8 10 18 0 10 12 25 26 32 14 8 44 37 67 65 54 64
137 145 207 199 74 57 77 59 75 34 -1 -12 -11 -25 -23 -29 -12 -5 -22 -15 -22
-24 0 -8 -7 -15 -16 -15 -8 0 -13 -4 -9 -9 3 -5 -11 -23 -31 -39 -20 -17 -33
-35 -30 -41 4 -6 2 -11 -3 -11 -6 0 -11 5 -11 12 0 6 -3 8 -7 4 -5 -4 -8 -11
-8 -14 0 -4 -22 -29 -48 -55 -30 -30 -47 -54 -43 -63 3 -8 -1 -17 -9 -20 -8
-4 -15 -10 -15 -15 0 -5 -14 -24 -31 -42 -34 -34 -53 -73 -43 -88 3 -5 1 -9
-4 -9 -6 0 -8 -9 -5 -21 6 -20 6 -20 29 5 13 14 24 27 24 30 0 3 14 20 31 38
17 18 51 59 74 90 24 32 90 105 146 164 144 148 244 224 401 304 105 54 121
59 116 33 -2 -10 -11 -17 -20 -15 -9 1 -27 -11 -39 -27 -12 -16 -30 -32 -41
-35 -11 -2 -18 -10 -16 -17 7 -21 23 -20 48 3 56 52 292 181 433 237 124 49
217 65 372 66 77 0 159 -3 183 -8 41 -7 42 -7 42 22 0 28 -2 29 -57 36 -32 3
-75 11 -96 16 -21 6 -52 12 -68 14 -17 2 -36 8 -43 14 -7 6 -16 8 -19 4 -4 -3
-13 -1 -20 6 -8 6 -22 9 -31 5 -9 -4 -16 -1 -16 6 0 10 -3 10 -14 1 -10 -8
-16 -9 -21 -1 -9 15 -35 12 -35 -5 0 -8 -9 -15 -20 -15 -11 0 -20 4 -20 9 0 5
-9 11 -20 14 -22 6 -28 -8 -7 -17 6 -4 2 -4 -10 -2 -13 2 -23 0 -23 -4 0 -5
-13 -7 -30 -5 -16 2 -30 0 -30 -5 0 -5 -18 -7 -41 -6 -29 3 -39 0 -35 -10 4
-9 -7 -12 -42 -11 -33 1 -46 -2 -44 -11 1 -6 -5 -12 -14 -12 -13 0 -14 3 -5
13 8 10 7 17 -1 25 -16 16 -28 15 -28 -2 0 -12 -47 -26 -93 -26 -16 0 -17 2
-1 31 l16 32 -30 -21 c-16 -12 -32 -19 -36 -15 -3 3 -14 -1 -24 -10 -18 -17
-65 -19 -89 -4 -17 11 -27 -12 -13 -28 10 -12 9 -16 -3 -21 -9 -3 -21 -3 -26
0 -12 8 -34 -30 -26 -44 3 -6 3 -14 0 -20 -9 -14 -65 17 -65 35 0 9 -11 3 -29
-16 -17 -17 -35 -28 -40 -24 -6 3 -11 -1 -11 -9 0 -24 -41 -20 -47 4 -3 11
-12 20 -20 20 -9 0 -13 -6 -10 -14 4 -9 -3 -16 -19 -19 -14 -2 -24 1 -24 7 -1
6 -9 1 -19 -11 -11 -13 -24 -23 -30 -23 -18 0 -12 30 7 37 20 7 94 57 114 76
7 7 39 30 70 51 31 20 60 46 63 56 3 10 23 30 45 45 22 15 40 31 40 34 0 3 14
12 31 20 17 8 44 27 59 43 15 15 49 35 76 44 27 9 90 35 139 59 111 52 141 60
160 42 7 -8 51 -23 97 -35 78 -19 211 -72 268 -108 23 -14 120 -61 218 -105
l43 -19 -3 148 -3 147 -42 0 c-23 0 -45 3 -49 8 -4 4 -24 7 -45 7 -44 0 -64
19 -22 22 15 1 39 3 53 4 14 1 44 2 68 3 41 1 42 2 42 36 l0 35 -102 1 c-57 1
-106 1 -110 0 -4 0 -62 -3 -130 -6 -68 -3 -152 -10 -188 -15 -36 -6 -86 -13
-112 -17 -27 -3 -48 -9 -48 -13 0 -4 -15 -13 -32 -20 -72 -29 -117 -50 -123
-60 -4 -6 -10 -8 -14 -5 -5 2 -26 -9 -46 -25 -21 -17 -44 -30 -51 -30 -8 0
-14 -5 -14 -11 0 -5 -17 -17 -37 -25 -20 -9 -45 -27 -56 -40 -10 -13 -23 -22
-28 -18 -6 3 -25 -6 -44 -20 -18 -14 -37 -26 -42 -26 -4 0 -14 -9 -21 -20 -7
-11 -18 -20 -25 -20 -8 0 -24 -11 -37 -25 -13 -14 -28 -25 -33 -25 -5 0 -18
-10 -28 -21 -18 -20 -20 -21 -43 -5 -29 18 -41 7 -22 -19 11 -16 11 -22 -5
-38 -10 -11 -27 -21 -37 -22 -37 -2 -92 -36 -92 -55 0 -13 -5 -17 -14 -14 -8
3 -17 1 -21 -5 -3 -6 -11 -11 -16 -11 -6 0 -7 5 -4 10 3 6 1 10 -4 10 -6 0
-11 -6 -11 -14 0 -7 -15 -19 -32 -27 -18 -7 -36 -18 -40 -23 -5 -8 -11 -7 -19
1 -9 9 -17 7 -33 -9 -26 -25 -65 -41 -83 -34 -7 3 -20 3 -29 -1 -12 -4 -13 -7
-3 -14 8 -4 11 -11 7 -14 -3 -3 -13 1 -21 9 -9 9 -23 13 -31 10 -9 -3 -23 -1
-31 6 -12 10 -18 10 -30 0 -8 -6 -20 -10 -27 -8 -16 6 51 43 70 40 6 -2 12 4
12 13 0 9 9 15 25 15 28 0 66 18 78 38 4 6 17 12 29 12 17 0 18 2 8 15 -9 10
-9 15 -1 15 6 0 11 12 11 26 0 23 -2 25 -16 13 -19 -15 -53 -36 -74 -44 -8 -3
-28 -13 -44 -21 -51 -26 -39 -7 23 36 34 24 61 47 61 51 0 5 6 9 13 9 20 1 72
54 74 75 2 30 21 75 32 75 5 0 12 12 15 28 4 15 9 35 13 46 3 11 1 16 -5 12
-15 -9 -20 50 -6 76 18 31 17 36 -3 41 -15 4 -15 6 5 12 22 7 31 25 12 25 -5
0 -10 6 -10 14 0 7 -7 19 -15 26 -9 7 -14 19 -11 25 6 17 -14 105 -25 105 -4
0 -6 -15 -3 -32 6 -31 5 -32 -8 -14 -14 18 -15 18 -21 -4 -9 -33 -30 -14 -23
21 3 19 2 28 -6 26 -6 -1 -18 11 -27 28 -9 16 -22 35 -28 43 -7 7 -13 22 -13
33 0 10 -4 19 -10 19 -5 0 -10 -7 -10 -15 0 -8 -4 -15 -8 -15 -16 0 -32 25
-32 50 0 15 -11 37 -25 50 -14 13 -24 29 -21 36 3 7 -1 20 -9 30 -12 18 -14
17 -26 -8 -6 -15 -16 -25 -20 -22 -5 3 -3 15 5 27 8 12 17 37 21 54 8 40 21
50 30 23 10 -30 24 -24 23 10 -1 24 -5 29 -18 25 -16 -5 -18 1 -16 48 1 30 7
61 14 70 9 10 10 17 2 22 -15 10 -12 35 5 35 9 0 20 -10 25 -22 6 -17 8 -8 8
37 -1 45 -6 65 -21 83 l-20 22 21 0 c15 0 20 5 16 15 -4 8 -12 15 -20 15 -8 0
-14 7 -14 15 0 9 -7 18 -15 21 -8 4 -15 11 -15 16 0 11 -41 47 -54 48 -4 0 -5
-11 -2 -24z m32 -254 c4 -21 3 -32 -5 -32 -6 0 -11 8 -11 18 0 9 -3 28 -6 42
-5 18 -4 22 4 15 7 -6 15 -25 18 -43z m-216 -371 c0 -25 -18 1 -25 34 l-6 30
15 -25 c8 -14 15 -32 16 -39z m27 37 c-3 -8 -6 -5 -6 6 -1 11 2 17 5 13 3 -3
4 -12 1 -19z m213 -3 c0 -26 -14 -33 -25 -15 -9 14 1 40 15 40 5 0 10 -11 10
-25z m-80 -41 c0 -8 -4 -14 -10 -14 -5 0 -10 9 -10 21 0 11 5 17 10 14 6 -3
10 -13 10 -21z m-233 -11 c-3 -2 -7 -3 -10 -1 -2 2 -11 -3 -20 -10 -20 -17
-34 3 -17 23 9 11 17 12 32 4 11 -6 17 -13 15 -16z m-77 -7 c0 -3 -4 -8 -10
-11 -5 -3 -10 -1 -10 4 0 6 5 11 10 11 6 0 10 -2 10 -4z m95 -95 c-17 -34 -28
-41 -19 -13 11 34 28 64 32 54 2 -6 -4 -24 -13 -41z m-425 -101 c0 -5 -2 -10
-4 -10 -3 0 -8 5 -11 10 -3 6 -1 10 4 10 6 0 11 -4 11 -10z m130 -27 c0 -32
-5 -28 -14 10 -4 19 -3 26 4 22 5 -3 10 -18 10 -32z m-104 -31 c-14 -13 -23
15 -13 38 l11 25 4 -28 c2 -16 1 -31 -2 -35z m944 48 c0 -5 -2 -10 -4 -10 -3
0 -8 5 -11 10 -3 6 -1 10 4 10 6 0 11 -4 11 -10z m-1000 -206 c0 -8 -5 -12
-10 -9 -6 4 -8 11 -5 16 9 14 15 11 15 -7z m1662 -324 c-9 -16 -18 -27 -20
-25 -7 7 22 64 30 59 4 -2 -1 -18 -10 -34z m-152 -50 c0 -5 -4 -10 -10 -10 -5
0 -10 5 -10 10 0 6 5 10 10 10 6 0 10 -4 10 -10z m33 -14 c4 -10 1 -13 -9 -9
-15 6 -19 23 -5 23 5 0 11 -7 14 -14z m-863 -790 c0 -2 -7 -7 -16 -10 -8 -3
-12 -2 -9 4 6 10 25 14 25 6z"/>
<path d="M4901 3891 c-8 -5 -16 -20 -18 -33 -6 -42 -12 -51 -26 -39 -11 9 -14
2 -14 -34 0 -36 4 -45 16 -43 12 2 16 -5 15 -29 -2 -28 1 -33 21 -33 12 0 28
7 35 15 10 12 9 15 -6 15 -14 0 -15 3 -6 12 7 7 12 21 12 33 0 11 7 33 15 49
18 34 19 39 4 30 -8 -4 -9 0 -4 15 4 12 2 21 -4 21 -6 0 -11 7 -11 15 0 17 -9
19 -29 6z"/>
<path d="M3950 3846 c0 -8 5 -18 10 -21 6 -3 10 1 10 9 0 8 -4 18 -10 21 -5 3
-10 -1 -10 -9z"/>
<path d="M4940 3765 c0 -8 5 -15 10 -15 6 0 10 7 10 15 0 8 -4 15 -10 15 -5 0
-10 -7 -10 -15z"/>
<path d="M3947 3743 c-4 -3 -7 -11 -7 -17 0 -6 5 -5 12 2 6 6 9 14 7 17 -3 3
-9 2 -12 -2z"/>
<path d="M3882 3680 c-15 -24 -16 -57 -2 -65 6 -3 10 -3 11 2 0 4 1 25 3 46 2
20 2 37 2 37 -1 0 -7 -9 -14 -20z"/>
<path d="M4850 3660 c0 -5 4 -10 10 -10 5 0 7 -7 4 -15 -4 -8 -2 -15 4 -15 10
0 22 23 22 41 0 5 -9 9 -20 9 -11 0 -20 -4 -20 -10z"/>
<path d="M3666 3631 c-15 -16 -15 -19 -2 -24 10 -4 20 1 26 13 14 26 -3 34
-24 11z"/>
<path d="M3635 3590 c-8 -13 -1 -24 14 -19 6 3 7 10 2 18 -6 10 -10 10 -16 1z"/>
<path d="M3862 3506 c-7 -15 -12 -35 -12 -44 1 -9 7 -2 16 17 17 41 14 66 -4
27z"/>
<path d="M4863 3504 c-3 -8 -2 -19 4 -25 5 -5 9 1 11 16 2 28 -6 33 -15 9z"/>
<path d="M564 3465 c-13 -34 63 -68 100 -45 18 11 23 9 46 -19 20 -24 34 -31
61 -31 l34 1 -30 25 c-38 33 -124 73 -169 81 -28 4 -37 2 -42 -12z"/>
<path d="M3627 3363 c-10 -9 -9 -23 2 -23 5 0 11 7 15 15 5 15 -5 20 -17 8z"/>
<path d="M4510 3344 c0 -9 5 -14 12 -12 18 6 21 28 4 28 -9 0 -16 -7 -16 -16z"/>
<path d="M1285 3341 c-3 -5 -1 -12 5 -16 5 -3 10 1 10 9 0 18 -6 21 -15 7z"/>
<path d="M3500 3324 c0 -3 7 -12 15 -20 13 -14 15 -13 15 5 0 12 -6 21 -15 21
-8 0 -15 -3 -15 -6z"/>
<path d="M3607 3314 c3 -7 9 -14 14 -14 14 0 10 17 -5 23 -10 4 -13 1 -9 -9z"/>
<path d="M4405 3259 c-4 -6 -5 -13 -2 -16 7 -7 27 6 27 18 0 12 -17 12 -25 -2z"/>
<path d="M4240 3216 c0 -9 5 -16 10 -16 6 0 10 4 10 9 0 6 -4 13 -10 16 -5 3
-10 -1 -10 -9z"/>
<path d="M4352 3170 c-17 -28 -16 -30 18 -30 25 0 30 4 30 25 0 31 -29 34 -48
5z"/>
<path d="M575 3152 c6 -5 21 -13 34 -17 17 -5 22 -4 19 6 -3 8 -18 15 -34 17
-19 2 -25 0 -19 -6z"/>
<path d="M2820 3149 c0 -5 5 -7 10 -4 6 3 10 8 10 11 0 2 -4 4 -10 4 -5 0 -10
-5 -10 -11z"/>
<path d="M4382 3090 c0 -14 2 -19 5 -12 2 6 2 18 0 25 -3 6 -5 1 -5 -13z"/>
<path d="M457 2923 c-21 -21 22 -33 51 -14 10 6 8 10 -10 14 -29 8 -33 8 -41
0z"/>
<path d="M703 2919 c-16 -16 1 -48 44 -81 45 -34 63 -36 56 -5 -10 38 -23 49
-41 35 -13 -11 -15 -10 -9 6 5 13 0 24 -14 37 -26 22 -22 22 -36 8z"/>
<path d="M3146 2888 c8 -28 12 -33 20 -25 9 8 -6 47 -17 47 -6 0 -7 -10 -3
-22z"/>
<path d="M3005 2880 c-8 -26 2 -40 11 -16 9 22 34 20 34 -3 0 -11 -5 -42 -11
-69 -15 -61 -7 -91 18 -71 14 12 15 11 9 -8 -4 -12 -2 -24 4 -28 8 -5 11 6 9
36 -2 27 1 44 9 47 6 2 12 13 12 25 0 18 -2 19 -10 7 -10 -16 -13 -10 -11 30
1 30 -16 55 -46 64 -16 5 -23 2 -28 -14z"/>
<path d="M3122 2855 c11 -24 28 -34 28 -16 0 21 -13 41 -26 41 -11 0 -11 -5
-2 -25z"/>
<path d="M3200 2755 c0 -8 2 -15 4 -15 2 0 6 7 10 15 3 8 1 15 -4 15 -6 0 -10
-7 -10 -15z"/>
<path d="M3207 2653 c-4 -3 -7 -11 -7 -17 0 -6 5 -5 12 2 6 6 9 14 7 17 -3 3
-9 2 -12 -2z"/>
<path d="M3057 2595 c-7 -67 -3 -77 18 -49 14 19 18 97 4 88 -4 -2 -9 2 -11 8
-3 7 -7 -14 -11 -47z"/>
<path d="M5340 2601 c0 -6 5 -13 10 -16 6 -3 10 1 10 9 0 9 -4 16 -10 16 -5 0
-10 -4 -10 -9z"/>
<path d="M3131 2584 c0 -11 3 -14 6 -6 3 7 2 16 -1 19 -3 4 -6 -2 -5 -13z"/>
<path d="M4436 2581 c-4 -5 -2 -12 3 -15 5 -4 12 -2 15 3 4 5 2 12 -3 15 -5 4
-12 2 -15 -3z"/>
<path d="M4860 2579 c0 -5 5 -7 10 -4 6 3 10 8 10 11 0 2 -4 4 -10 4 -5 0 -10
-5 -10 -11z"/>
<path d="M4945 2571 c-3 -5 -1 -12 5 -16 5 -3 10 1 10 9 0 18 -6 21 -15 7z"/>
<path d="M4328 2513 c7 -3 16 -2 19 1 4 3 -2 6 -13 5 -11 0 -14 -3 -6 -6z"/>
<path d="M1590 2380 c0 -5 4 -10 8 -10 17 0 64 -112 69 -165 5 -49 8 -55 29
-55 53 0 74 -31 32 -46 -19 -6 -14 -8 24 -11 36 -3 52 -10 68 -30 11 -14 20
-31 20 -38 0 -7 6 -17 13 -23 11 -9 13 4 12 71 -3 140 -64 255 -148 278 -46
12 -57 6 -33 -19 9 -11 27 -47 41 -83 22 -54 23 -65 11 -77 -12 -12 -15 -8
-21 29 -7 48 -38 119 -69 162 -19 26 -56 38 -56 17z"/>
<path d="M5480 2325 c0 -8 9 -13 20 -12 11 1 20 4 20 8 0 4 -9 9 -20 12 -13 3
-20 0 -20 -8z"/>
<path d="M5380 2305 c-25 -8 -49 -20 -55 -28 -11 -14 -118 -67 -136 -67 -6 0
-8 -9 -4 -20 5 -16 2 -20 -14 -20 -33 0 -102 -31 -94 -43 4 -6 0 -8 -10 -4 -9
3 -31 -5 -52 -19 -20 -13 -39 -24 -43 -24 -4 -1 -23 -14 -42 -30 -19 -17 -40
-30 -47 -30 -7 0 -13 -6 -13 -13 0 -6 -20 -24 -45 -39 -58 -35 -58 -51 -1 -34
25 8 47 11 50 9 3 -3 17 2 30 11 14 9 32 16 40 16 8 0 43 19 78 43 35 24 85
52 111 62 27 10 56 29 64 42 8 13 21 23 29 23 7 0 21 11 29 24 21 31 86 76
111 76 11 0 27 9 36 19 9 10 24 23 33 29 10 5 15 14 11 21 -9 13 -9 13 -66 -4z"/>
<path d="M637 2233 c-14 -13 -6 -23 18 -23 18 0 28 -9 41 -35 9 -19 23 -35 31
-35 11 0 13 -7 9 -26 -7 -25 -6 -25 16 -10 32 22 36 20 40 -16 2 -25 7 -32 20
-30 23 4 68 -65 68 -105 0 -30 21 -63 41 -63 5 0 7 -11 4 -23 -5 -17 1 -33 20
-55 21 -25 23 -32 11 -32 -9 0 -32 -8 -51 -19 -33 -18 -34 -19 -13 -25 42 -11
156 -7 165 7 4 6 17 39 28 72 20 57 23 60 55 63 46 3 59 -7 53 -41 -4 -20 -8
-25 -14 -16 -19 31 -18 -4 2 -92 21 -93 38 -141 39 -109 0 8 -7 42 -15 75 -14
60 -19 113 -10 103 4 -4 64 -275 84 -383 5 -27 9 -40 10 -27 1 26 -33 225 -55
317 -7 33 -14 69 -14 80 1 48 21 -19 54 -181 19 -93 35 -155 35 -138 1 16 -11
88 -25 160 -38 187 -38 188 -25 180 6 -4 11 -19 11 -33 0 -15 4 -40 10 -57 5
-17 21 -83 35 -146 32 -150 26 -64 -9 109 -30 153 -29 144 -17 137 4 -3 14
-33 20 -67 7 -33 15 -59 18 -56 2 3 -1 31 -7 62 -12 59 -7 85 8 44 5 -13 15
-55 22 -94 7 -38 19 -90 26 -115 l13 -45 -6 55 c-3 30 -12 80 -19 110 -8 30
-14 68 -14 85 1 47 15 11 30 -75 6 -41 16 -86 20 -100 15 -46 11 39 -5 105
-17 71 -19 103 -6 90 5 -6 17 -52 26 -102 19 -113 38 -165 29 -83 -3 30 -12
81 -20 113 -8 32 -14 68 -14 80 1 22 1 22 15 3 13 -17 15 -18 15 -3 0 32 19
17 25 -20 12 -71 46 -227 51 -232 10 -11 -17 173 -35 236 -5 18 -6 35 -1 38
11 7 16 -12 30 -95 6 -36 17 -90 24 -120 l14 -55 -5 55 c-2 30 -9 80 -15 110
-6 30 -12 71 -15 90 -8 69 17 4 32 -83 22 -124 36 -189 42 -184 4 5 -5 65 -34
215 -16 83 -12 118 7 68 5 -15 10 -42 11 -59 1 -36 36 -181 38 -156 0 9 -8 68
-19 130 -11 62 -17 115 -15 117 7 8 13 -15 40 -153 24 -118 35 -159 35 -126 0
14 -37 231 -47 271 -4 17 -2 22 4 15 11 -10 50 -185 100 -442 15 -79 31 -143
35 -143 5 0 6 10 3 23 -5 24 -76 375 -101 500 -16 82 -13 117 5 51 5 -22 19
-84 31 -138 19 -97 30 -129 30 -90 -1 10 -12 73 -25 139 -34 171 -26 165 24
-15 l9 -35 0 35 c1 19 -7 64 -16 100 l-18 65 -59 5 -60 5 30 20 c40 27 79 73
80 97 2 16 -1 16 -25 -7 -14 -14 -33 -25 -42 -25 -9 0 -23 -6 -30 -12 -43 -40
-60 -50 -109 -62 -119 -30 -228 -26 -270 10 -22 20 -31 17 -27 -8 2 -15 11
-24 26 -26 38 -6 24 -20 -25 -27 -27 -3 -58 -8 -70 -11 -34 -7 -28 13 17 53
l40 36 -35 38 c-18 21 -46 63 -60 94 -22 45 -24 59 -14 71 19 24 4 26 -24 3
-34 -26 -35 -57 -2 -152 16 -46 19 -65 10 -52 -9 11 -20 38 -26 60 -19 69 -21
72 -28 46 -6 -24 -31 -42 -31 -23 0 6 -60 40 -132 76 -73 37 -142 73 -154 81
-11 8 -24 12 -27 8z"/>
<path d="M1360 2181 c0 -6 5 -13 10 -16 6 -3 10 1 10 9 0 9 -4 16 -10 16 -5 0
-10 -4 -10 -9z"/>
<path d="M4919 2167 c-14 -12 -29 -30 -32 -39 -4 -11 -12 -15 -22 -12 -10 4
-27 -4 -45 -21 -16 -15 -33 -24 -39 -21 -7 4 -11 -1 -11 -12 0 -20 -25 -36
-41 -27 -5 4 -6 -1 -3 -9 4 -10 -1 -18 -10 -22 -9 -3 -30 -19 -47 -35 -17 -16
-35 -29 -40 -29 -5 0 -9 -4 -9 -10 0 -5 -20 -31 -45 -57 -25 -25 -45 -52 -45
-58 0 -6 -14 -24 -31 -41 -17 -16 -38 -42 -46 -59 -9 -16 -27 -40 -40 -52 -13
-12 -24 -26 -25 -30 -1 -9 -45 -67 -70 -93 -9 -10 -19 -27 -23 -39 -3 -12 -11
-21 -17 -21 -5 0 -8 -7 -4 -15 3 -9 -3 -19 -14 -25 -11 -6 -20 -17 -20 -25 0
-8 -3 -15 -8 -15 -4 0 -15 -17 -25 -37 -9 -21 -22 -45 -27 -53 -14 -21 -32
-71 -35 -94 -1 -11 -12 -28 -25 -38 -20 -16 -22 -21 -9 -30 11 -8 11 -9 -3 -5
-20 7 -42 -17 -35 -37 3 -8 -1 -17 -9 -20 -8 -3 -14 -15 -14 -26 0 -11 -4 -20
-10 -20 -5 0 -10 -9 -10 -19 0 -10 -7 -22 -16 -25 -11 -4 -14 -13 -11 -27 3
-12 0 -22 -9 -26 -8 -3 -14 -14 -14 -24 0 -10 -5 -19 -10 -19 -6 0 -15 -12
-21 -27 -5 -16 -12 -35 -16 -43 -3 -8 -5 -19 -4 -23 0 -4 -8 -17 -19 -29 -33
-35 -23 -40 29 -13 38 19 51 31 56 55 9 41 44 81 106 120 30 20 66 56 88 89
36 53 126 150 175 188 22 18 48 108 62 218 12 95 53 205 105 278 16 23 41 59
54 79 29 44 176 191 298 298 81 71 103 100 75 100 -7 -1 -25 -11 -39 -23z"/>
<path d="M1620 2075 c-7 -14 -10 -28 -7 -31 4 -4 11 6 17 21 6 15 9 29 7 31
-2 2 -10 -7 -17 -21z"/>
<path d="M5308 2009 c-2 -6 -17 -12 -33 -14 -66 -9 -95 -18 -111 -36 -9 -10
-23 -19 -29 -19 -20 0 -25 -27 -9 -41 11 -9 18 -9 26 -1 6 6 17 8 25 5 8 -3
20 2 27 12 7 10 18 15 24 11 6 -4 29 2 51 14 22 11 49 20 61 20 11 0 20 6 20
14 0 8 6 17 13 19 9 4 8 8 -3 16 -20 14 -57 14 -62 0z"/>
<path d="M5404 1989 c-19 -21 -19 -21 9 -8 15 7 27 16 27 21 0 14 -16 9 -36
-13z"/>
<path d="M1706 1905 c4 -22 15 -67 25 -100 23 -80 26 -27 3 59 -20 72 -39 100
-28 41z"/>
<path d="M1730 1933 c1 -18 49 -195 55 -201 4 -4 4 4 1 18 -3 14 -13 62 -22
108 -9 45 -21 82 -25 82 -5 0 -9 -3 -9 -7z"/>
<path d="M1764 1920 c3 -14 14 -56 23 -95 10 -38 19 -61 21 -51 5 23 -27 147
-41 161 -6 7 -8 2 -3 -15z"/>
<path d="M1804 1880 c7 -60 28 -128 33 -112 3 6 10 9 16 5 7 -4 18 -8 25 -9
11 -2 10 1 -1 14 -11 12 -13 22 -6 34 10 18 2 51 -11 43 -4 -3 -11 3 -14 12
-6 15 -8 15 -16 3 -8 -12 -10 -11 -10 5 0 11 -5 27 -11 35 -8 11 -9 3 -5 -30z
m35 -57 c0 -25 -1 -25 -8 -8 -5 11 -7 23 -4 28 8 14 13 7 12 -20z"/>
<path d="M3496 1905 c-3 -9 -6 -24 -6 -33 0 -15 1 -15 16 0 12 11 13 21 7 33
-9 16 -10 16 -17 0z"/>
<path d="M1825 1900 c3 -5 8 -10 11 -10 2 0 4 5 4 10 0 6 -5 10 -11 10 -5 0
-7 -4 -4 -10z"/>
<path d="M780 1818 c0 -17 10 -34 26 -47 41 -32 48 -25 18 17 -42 57 -44 58
-44 30z"/>
<path d="M4960 1810 c0 -4 -16 -11 -35 -14 -26 -5 -33 -10 -28 -23 5 -12 2
-15 -10 -10 -12 4 -17 1 -18 -11 0 -10 -3 -12 -6 -4 -2 6 -18 12 -35 12 -24 0
-28 -3 -23 -19 4 -15 -1 -19 -30 -24 -32 -5 -59 -23 -130 -86 -25 -22 -79 -84
-80 -92 0 -3 -9 -14 -19 -25 -20 -19 -19 -19 9 -22 15 -2 31 1 34 6 10 15 76
33 94 26 13 -5 17 0 17 16 0 25 26 49 53 50 16 0 65 26 77 41 3 3 23 12 45 19
22 7 49 19 60 26 11 8 27 14 37 14 10 0 18 7 18 15 0 8 -4 15 -8 15 -14 0 -53
41 -50 52 2 6 15 13 28 15 34 5 45 19 21 26 -12 3 -21 2 -21 -3z"/>
<path d="M1141 1790 c0 -14 4 -32 9 -40 9 -13 10 -13 9 0 -1 8 -5 26 -9 40
l-8 25 -1 -25z"/>
<path d="M3266 1777 c-80 -140 -121 -238 -99 -237 4 0 27 26 51 57 44 58 76
144 70 188 -3 25 -3 25 -22 -8z"/>
<path d="M1444 1745 c8 -70 34 -164 35 -125 1 30 -28 172 -36 180 -3 3 -3 -22
1 -55z"/>
<path d="M4690 1784 c-81 -54 -176 -159 -215 -239 -50 -102 -27 -101 48 3 30
42 92 113 136 157 44 44 81 83 81 88 0 12 -24 8 -50 -9z"/>
<path d="M1113 1775 c-17 -18 -16 -22 2 -22 8 0 15 9 15 19 0 21 -1 22 -17 3z"/>
<path d="M1811 1734 c0 -11 3 -14 6 -6 3 7 2 16 -1 19 -3 4 -6 -2 -5 -13z"/>
<path d="M1890 1733 c0 -6 -3 -18 -6 -26 -3 -8 2 -17 12 -21 24 -9 26 -3 9 30
-8 16 -15 24 -15 17z"/>
<path d="M1160 1707 c0 -14 5 -29 10 -32 7 -4 8 3 4 22 -9 38 -14 42 -14 10z"/>
<path d="M1726 1690 c6 -44 11 -57 17 -49 2 2 -2 24 -9 49 l-13 45 5 -45z"/>
<path d="M945 1673 c-44 -13 -105 -31 -135 -39 -97 -28 -244 -94 -269 -121
-20 -23 -22 -33 -17 -72 11 -79 15 -79 172 -28 77 26 175 56 219 67 44 12 88
24 98 27 20 5 22 40 7 93 -7 25 -7 43 1 63 7 15 10 29 8 31 -2 1 -40 -8 -84
-21z m62 -69 c5 -15 -11 -33 -30 -34 -15 0 -20 32 -6 41 20 13 29 11 36 -7z
m-129 -37 c4 -21 -25 -34 -40 -19 -8 8 -8 16 2 27 16 19 34 15 38 -8z m-118
-36 c0 -14 -28 -33 -40 -26 -15 10 -12 23 8 28 28 8 32 7 32 -2z"/>
<path d="M1761 1680 c0 -14 4 -43 9 -65 6 -22 21 -98 35 -169 24 -128 44 -185
31 -91 -15 113 -74 367 -75 325z"/>
<path d="M1790 1689 c1 -8 5 -32 9 -54 5 -22 14 -67 20 -100 30 -162 45 -225
53 -225 5 0 7 8 4 18 -3 9 -21 95 -40 191 -32 155 -47 212 -46 170z"/>
<path d="M1821 1684 c0 -11 3 -14 6 -6 3 7 2 16 -1 19 -3 4 -6 -2 -5 -13z"/>
<path d="M3320 1680 c0 -6 -16 -29 -36 -50 -54 -58 -114 -154 -114 -182 0 -4
-11 -21 -25 -36 -27 -30 -101 -177 -130 -257 -21 -58 -41 -85 -31 -41 20 82
20 90 2 83 -9 -4 -26 -3 -39 2 -32 13 -63 -5 -46 -26 14 -17 19 -40 19 -98 0
-29 -6 -45 -21 -57 -12 -10 -22 -29 -23 -43 -1 -17 -5 -23 -15 -20 -11 4 -12
3 -1 -10 10 -12 9 -16 -4 -21 -9 -4 -18 -5 -19 -3 -24 39 -47 108 -47 139 0
46 -16 52 -46 18 -21 -24 -54 -89 -54 -106 0 -5 -7 -13 -16 -16 -8 -3 -12 -10
-9 -16 3 -5 2 -10 -3 -10 -9 0 -58 -47 -173 -167 -31 -32 -84 -84 -118 -116
l-62 -58 37 -72 c20 -40 42 -83 48 -96 6 -14 36 -39 67 -57 63 -37 108 -97
115 -152 l5 -37 -17 30 c-24 42 -43 54 -89 53 -44 0 -216 -67 -264 -102 l-31
-23 39 -11 c54 -17 68 -15 149 13 108 38 126 35 186 -29 28 -30 62 -59 75 -66
22 -11 307 -37 316 -29 2 3 7 74 11 159 4 94 12 163 19 175 7 11 16 43 19 70
6 52 2 48 -28 -28 -17 -42 -45 -49 -84 -21 -21 15 -23 22 -19 88 4 70 18 116
37 116 5 0 16 24 25 53 15 51 67 196 125 347 16 41 39 102 51 135 12 33 53
125 90 205 38 80 71 161 75 180 l6 35 -32 -38 c-18 -21 -34 -36 -37 -33 -6 6
10 34 72 131 68 106 68 105 56 105 -6 0 -11 -5 -11 -10z"/>
<path d="M780 1665 c0 -8 5 -15 10 -15 6 0 10 7 10 15 0 8 -4 15 -10 15 -5 0
-10 -7 -10 -15z"/>
<path d="M1335 1623 c21 -93 24 -101 19 -48 -7 73 -14 105 -24 105 -4 0 -2
-26 5 -57z"/>
<path d="M1171 1654 c3 -37 37 -173 38 -149 0 32 -24 143 -33 153 -3 3 -6 1
-5 -4z"/>
<path d="M1861 1629 c0 -14 3 -39 8 -55 5 -16 14 -60 20 -99 19 -113 21 -120
30 -106 6 10 10 9 15 -4 3 -9 6 -25 6 -35 0 -10 4 -21 8 -24 4 -2 7 12 5 32
-2 29 -1 33 6 17 5 -11 10 -31 11 -45 1 -14 4 -19 7 -12 2 6 11 12 19 12 17 0
18 12 2 29 -11 11 -10 12 2 5 11 -6 10 -1 -4 20 -12 20 -17 39 -13 62 3 19 2
34 -3 34 -5 0 -11 8 -13 18 -2 9 -3 7 -2 -5 1 -13 -2 -23 -6 -23 -5 0 -9 8 -9
18 0 11 -3 13 -8 5 -4 -6 -7 13 -7 43 0 37 -5 57 -16 66 -9 7 -20 26 -23 42
-4 15 -9 27 -11 24 -2 -2 0 -20 4 -41 5 -20 6 -37 1 -37 -4 0 -12 19 -17 43
-8 31 -11 35 -12 16z m42 -89 c3 -11 1 -20 -4 -20 -5 0 -9 9 -9 20 0 11 2 20
4 20 2 0 6 -9 9 -20z m44 -152 c-3 -8 -6 -5 -6 6 -1 11 2 17 5 13 3 -3 4 -12
1 -19z"/>
<path d="M1831 1630 c1 -8 5 -26 9 -40 l8 -25 1 25 c0 14 -4 32 -9 40 -9 13
-10 13 -9 0z"/>
<path d="M1711 1609 c-1 -9 10 -72 24 -140 32 -159 35 -172 40 -167 6 6 -43
277 -55 303 -7 15 -9 16 -9 4z"/>
<path d="M1740 1610 c0 -7 4 -29 10 -49 5 -20 17 -78 26 -128 9 -51 21 -93 26
-93 6 0 7 13 2 33 -4 17 -17 78 -28 134 -19 91 -36 139 -36 103z"/>
<path d="M4222 1608 c-18 -18 -15 -28 8 -28 21 0 25 7 12 27 -6 10 -11 10 -20
1z"/>
<path d="M5301 1606 c-7 -8 -8 -17 -3 -20 6 -3 13 1 16 10 9 23 2 28 -13 10z"/>
<path d="M1611 1584 c0 -11 3 -14 6 -6 3 7 2 16 -1 19 -3 4 -6 -2 -5 -13z"/>
<path d="M3101 1569 c-12 -19 -21 -39 -21 -45 0 -6 -9 -19 -20 -29 -29 -26
-41 -82 -32 -151 l8 -59 28 42 c25 38 28 49 22 92 -5 41 -2 62 19 112 28 70
26 88 -4 38z"/>
<path d="M1216 1563 c10 -40 14 -41 14 -5 0 18 -5 32 -10 32 -6 0 -8 -11 -4
-27z"/>
<path d="M1411 1574 c0 -11 3 -14 6 -6 3 7 2 16 -1 19 -3 4 -6 -2 -5 -13z"/>
<path d="M1656 1540 c3 -25 14 -79 25 -120 17 -66 18 -69 13 -24 -3 28 -14 82
-24 120 -16 56 -18 60 -14 24z"/>
<path d="M1452 1545 c0 -16 2 -22 5 -12 2 9 2 23 0 30 -3 6 -5 -1 -5 -18z"/>
<path d="M5251 1554 c-20 -23 -9 -25 19 -4 16 13 20 20 10 19 -8 0 -21 -7 -29
-15z"/>
<path d="M1551 1544 c0 -11 3 -14 6 -6 3 7 2 16 -1 19 -3 4 -6 -2 -5 -13z"/>
<path d="M1851 1545 c-1 -25 28 -168 36 -175 3 -3 2 21 -2 53 -8 64 -33 154
-34 122z"/>
<path d="M4720 1550 c0 -5 7 -7 15 -4 8 4 15 8 15 10 0 2 -7 4 -15 4 -8 0 -15
-4 -15 -10z"/>
<path d="M1421 1534 c0 -11 3 -14 6 -6 3 7 2 16 -1 19 -3 4 -6 -2 -5 -13z"/>
<path d="M1592 1525 c0 -16 2 -22 5 -12 2 9 2 23 0 30 -3 6 -5 -1 -5 -18z"/>
<path d="M1392 1515 c0 -16 2 -22 5 -12 2 9 2 23 0 30 -3 6 -5 -1 -5 -18z"/>
<path d="M1521 1524 c0 -11 3 -14 6 -6 3 7 2 16 -1 19 -3 4 -6 -2 -5 -13z"/>
<path d="M1492 1510 c0 -14 2 -19 5 -12 2 6 2 18 0 25 -3 6 -5 1 -5 -13z"/>
<path d="M1236 1465 c4 -33 11 -67 16 -75 5 -10 6 5 2 40 -9 78 -25 110 -18
35z"/>
<path d="M5145 1509 c-4 -6 -5 -13 -2 -16 7 -7 27 6 27 18 0 12 -17 12 -25 -2z"/>
<path d="M1631 1490 c0 -14 4 -34 9 -45 8 -18 9 -18 9 5 0 14 -4 34 -9 45 -8
18 -9 18 -9 -5z"/>
<path d="M1461 1484 c0 -11 3 -14 6 -6 3 7 2 16 -1 19 -3 4 -6 -2 -5 -13z"/>
<path d="M3104 1476 c-3 -14 -4 -33 -1 -43 3 -14 8 -9 20 19 21 46 21 48 2 48
-8 0 -17 -11 -21 -24z"/>
<path d="M3994 1489 c-6 -8 -14 -22 -17 -31 -4 -10 -13 -18 -20 -18 -9 0 -14
-13 -15 -37 -1 -26 -9 -44 -23 -55 -16 -14 -17 -18 -6 -18 26 0 47 12 47 26 0
8 5 14 11 14 6 0 9 6 6 14 -3 7 0 19 6 26 9 10 9 14 -1 17 -6 3 -9 9 -6 14 4
6 11 6 19 -1 18 -15 26 1 17 34 -6 22 -10 25 -18 15z"/>
<path d="M1431 1474 c0 -11 3 -14 6 -6 3 7 2 16 -1 19 -3 4 -6 -2 -5 -13z"/>
<path d="M5001 1473 c-8 -14 -12 -15 -25 -4 -14 11 -16 11 -16 -3 0 -12 10
-16 38 -16 47 0 82 10 82 22 0 5 -9 7 -19 3 -11 -3 -22 -1 -26 5 -9 15 -23 12
-34 -7z"/>
<path d="M1211 1454 c0 -11 3 -14 6 -6 3 7 2 16 -1 19 -3 4 -6 -2 -5 -13z"/>
<path d="M4916 1462 c-2 -4 4 -14 15 -20 19 -12 19 -11 9 8 -12 22 -16 24 -24
12z"/>
<path d="M1372 1440 c0 -14 2 -19 5 -12 2 6 2 18 0 25 -3 6 -5 1 -5 -13z"/>
<path d="M980 1430 c0 -5 7 -7 15 -4 8 4 15 8 15 10 0 2 -7 4 -15 4 -8 0 -15
-4 -15 -10z"/>
<path d="M1020 1424 c0 -17 22 -14 28 4 2 7 -3 12 -12 12 -9 0 -16 -7 -16 -16z"/>
<path d="M1542 1420 c0 -14 2 -19 5 -12 2 6 2 18 0 25 -3 6 -5 1 -5 -13z"/>
<path d="M1576 1413 c9 -38 14 -42 14 -10 0 14 -5 29 -10 32 -7 4 -8 -3 -4
-22z"/>
<path d="M1191 1414 c0 -11 3 -14 6 -6 3 7 2 16 -1 19 -3 4 -6 -2 -5 -13z"/>
<path d="M1342 1410 c0 -14 2 -19 5 -12 2 6 2 18 0 25 -3 6 -5 1 -5 -13z"/>
<path d="M1221 1404 c0 -11 3 -14 6 -6 3 7 2 16 -1 19 -3 4 -6 -2 -5 -13z"/>
<path d="M1311 1404 c0 -11 3 -14 6 -6 3 7 2 16 -1 19 -3 4 -6 -2 -5 -13z"/>
<path d="M1441 1404 c0 -11 3 -14 6 -6 3 7 2 16 -1 19 -3 4 -6 -2 -5 -13z"/>
<path d="M1412 1395 c-1 -11 3 -38 7 -60 7 -34 9 -35 9 -10 0 35 -15 101 -16
70z"/>
<path d="M1382 1380 c0 -14 2 -19 5 -12 2 6 2 18 0 25 -3 6 -5 1 -5 -13z"/>
<path d="M4845 1390 c4 -6 11 -8 16 -4 5 3 16 1 24 -6 8 -6 16 -7 19 -2 3 6
-4 12 -17 16 -33 9 -49 7 -42 -4z"/>
<path d="M1352 1360 c0 -14 2 -19 5 -12 2 6 2 18 0 25 -3 6 -5 1 -5 -13z"/>
<path d="M1232 1345 c0 -16 4 -43 8 -60 l8 -30 0 30 c0 17 -4 44 -8 60 l-8 30
0 -30z"/>
<path d="M1452 1350 c0 -14 2 -19 5 -12 2 6 2 18 0 25 -3 6 -5 1 -5 -13z"/>
<path d="M1620 1365 c0 -5 7 -32 15 -60 l15 -50 -5 44 c-5 39 -24 91 -25 66z"/>
<path d="M2976 1358 c-10 -32 -15 -108 -6 -108 5 0 12 -9 15 -21 14 -44 27 -2
20 65 -7 63 -20 93 -29 64z"/>
<path d="M1290 1337 c0 -14 5 -29 10 -32 7 -4 8 3 4 22 -9 38 -14 42 -14 10z"/>
<path d="M1591 1339 c0 -13 4 -33 9 -44 7 -14 8 -8 3 20 -7 46 -13 59 -12 24z"/>
<path d="M1662 1345 c0 -11 3 -29 8 -40 11 -25 11 1 0 35 -6 20 -8 21 -8 5z"/>
<path d="M3515 1350 c-3 -5 -1 -10 4 -10 6 0 11 5 11 10 0 6 -2 10 -4 10 -3 0
-8 -4 -11 -10z"/>
<path d="M4833 1353 c9 -2 23 -2 30 0 6 3 -1 5 -18 5 -16 0 -22 -2 -12 -5z"/>
<path d="M1327 1315 c7 -49 13 -58 13 -19 0 16 -5 36 -10 44 -6 10 -7 2 -3
-25z"/>
<path d="M1890 1334 c0 -10 5 -26 10 -34 8 -11 9 -7 4 15 -8 37 -14 45 -14 19z"/>
<path d="M3970 1330 c-13 -8 -13 -10 2 -10 9 0 20 5 23 10 8 13 -5 13 -25 0z"/>
<path d="M4460 1330 c0 -5 5 -10 10 -10 6 0 10 5 10 10 0 6 -4 10 -10 10 -5 0
-10 -4 -10 -10z"/>
<path d="M1391 1314 c0 -11 3 -14 6 -6 3 7 2 16 -1 19 -3 4 -6 -2 -5 -13z"/>
<path d="M1492 1310 c0 -14 4 -36 8 -50 6 -20 8 -21 8 -5 0 11 -4 34 -8 50 -7
27 -8 27 -8 5z"/>
<path d="M1561 1314 c0 -11 3 -14 6 -6 3 7 2 16 -1 19 -3 4 -6 -2 -5 -13z"/>
<path d="M1462 1285 c0 -16 2 -22 5 -12 2 9 2 23 0 30 -3 6 -5 -1 -5 -18z"/>
<path d="M4000 1291 c0 -5 7 -14 15 -21 16 -14 18 -10 9 14 -6 17 -24 22 -24
7z"/>
<path d="M1531 1274 c0 -11 3 -14 6 -6 3 7 2 16 -1 19 -3 4 -6 -2 -5 -13z"/>
<path d="M2000 1280 c0 -5 5 -10 11 -10 5 0 7 5 4 10 -3 6 -8 10 -11 10 -2 0
-4 -4 -4 -10z"/>
<path d="M1401 1254 c0 -11 3 -14 6 -6 3 7 2 16 -1 19 -3 4 -6 -2 -5 -13z"/>
<path d="M1342 1240 c0 -14 2 -19 5 -12 2 6 2 18 0 25 -3 6 -5 1 -5 -13z"/>
<path d="M1372 1220 c0 -19 2 -27 5 -17 2 9 2 25 0 35 -3 9 -5 1 -5 -18z"/>
<path d="M1541 1234 c0 -11 3 -14 6 -6 3 7 2 16 -1 19 -3 4 -6 -2 -5 -13z"/>
<path d="M4560 1243 c-13 -3 -33 -11 -44 -19 -11 -8 -30 -14 -42 -14 -11 0
-33 -11 -48 -25 -15 -14 -34 -25 -42 -25 -7 0 -14 -6 -14 -13 0 -6 -14 -18
-31 -26 -17 -7 -34 -23 -38 -35 -13 -33 45 -42 107 -17 155 63 208 79 270 79
63 1 69 4 67 34 -1 17 -8 23 -26 23 -13 0 -31 8 -40 17 -17 18 -78 29 -119 21z"/>
<path d="M5190 1239 c0 -5 5 -7 10 -4 6 3 10 8 10 11 0 2 -4 4 -10 4 -5 0 -10
-5 -10 -11z"/>
<path d="M1282 1220 c0 -14 2 -19 5 -12 2 6 2 18 0 25 -3 6 -5 1 -5 -13z"/>
<path d="M3860 1220 c0 -5 5 -10 11 -10 5 0 7 5 4 10 -3 6 -8 10 -11 10 -2 0
-4 -4 -4 -10z"/>
<path d="M3976 1204 c-4 -9 -13 -14 -21 -10 -11 4 -15 -2 -15 -19 0 -18 5 -25
19 -25 23 0 52 36 44 56 -7 19 -19 18 -27 -2z"/>
<path d="M3550 1186 c0 -8 5 -18 10 -21 6 -3 10 3 10 14 0 12 -4 21 -10 21 -5
0 -10 -6 -10 -14z"/>
<path d="M4767 1193 c-12 -11 -8 -23 8 -23 8 0 15 7 15 15 0 16 -12 20 -23 8z"/>
<path d="M886 1157 c3 -10 9 -15 12 -12 3 3 0 11 -7 18 -10 9 -11 8 -5 -6z"/>
<path d="M1481 1133 c-1 -18 4 -33 9 -33 12 0 12 17 0 45 -7 17 -9 15 -9 -12z"/>
<path d="M3915 1131 c4 -13 0 -24 -12 -31 -17 -11 -17 -11 0 -6 20 6 39 -25
19 -32 -7 -2 -10 -7 -8 -11 3 -4 -2 -8 -10 -8 -8 0 -13 6 -10 14 4 9 -4 13
-24 13 -17 0 -30 -3 -30 -7 0 -9 91 -73 103 -73 4 0 7 8 7 18 0 10 4 22 9 28
16 17 21 84 7 84 -8 0 -19 7 -26 15 -18 21 -33 19 -25 -4z"/>
<path d="M1450 1113 c0 -13 5 -23 10 -23 13 0 13 11 0 30 -8 12 -10 11 -10 -7z"/>
<path d="M1015 1111 c-16 -4 -52 -5 -79 -3 l-49 4 6 -29 c4 -15 15 -70 26
-122 19 -88 23 -98 68 -143 50 -51 63 -58 63 -32 0 9 10 33 23 53 19 31 22 49
22 136 -1 100 -13 146 -38 144 -7 -1 -25 -4 -42 -8z"/>
<path d="M1415 1100 c-3 -5 -1 -10 4 -10 6 0 11 5 11 10 0 6 -2 10 -4 10 -3 0
-8 -4 -11 -10z"/>
<path d="M5366 1085 c-3 -8 -12 -12 -21 -9 -9 4 -17 -1 -21 -11 -4 -9 -10 -13
-13 -7 -4 5 -19 5 -40 0 -18 -5 -31 -12 -27 -15 8 -8 -26 -32 -46 -33 -12 0
-17 -7 -15 -21 1 -12 -4 -24 -11 -26 -7 -3 -10 1 -6 10 4 12 -3 14 -43 12 -26
-2 -61 -9 -78 -16 -16 -7 -45 -13 -64 -13 -28 -1 -36 -6 -42 -28 -5 -20 -4
-25 7 -21 8 3 14 -1 14 -11 0 -10 5 -13 17 -9 11 4 14 3 9 -6 -5 -7 -1 -20 9
-31 10 -11 12 -20 6 -24 -5 -4 -12 -2 -16 4 -8 14 -35 13 -35 -1 0 -6 7 -9 15
-6 8 4 17 2 20 -3 12 -20 34 -9 37 18 l4 27 14 -28 c12 -26 14 -26 32 -11 17
16 18 16 18 -4 0 -12 -5 -22 -11 -22 -5 0 -7 -5 -3 -11 4 -7 17 1 35 20 15 17
33 31 40 31 12 0 171 160 221 223 21 26 25 37 15 37 -8 0 -17 -7 -21 -15z
m-357 -160 c3 -16 1 -17 -12 -7 -8 7 -22 10 -31 6 -11 -4 -16 -1 -16 11 0 25
54 16 59 -10z"/>
<path d="M1894 1081 c-2 -2 -19 -5 -37 -7 -142 -10 -237 -35 -206 -55 12 -7
12 -9 0 -9 -13 0 -108 -66 -161 -111 -14 -11 -45 -30 -68 -42 -24 -11 -46 -26
-49 -34 -3 -8 -19 -21 -35 -29 -35 -18 -68 -69 -68 -105 0 -15 -7 -32 -15 -39
-22 -18 -18 -45 8 -57 25 -12 43 -12 39 0 -1 5 3 5 9 1 7 -4 30 13 58 42 55
59 186 174 198 174 4 0 19 12 32 26 46 48 126 112 169 134 23 12 45 26 48 31
3 5 13 9 23 9 10 0 33 8 51 17 22 10 64 17 118 19 46 1 86 5 89 8 13 13 -57
30 -125 31 -40 0 -75 -1 -78 -4z"/>
<path d="M1426 1041 c-10 -15 40 -19 60 -4 16 12 14 13 -18 13 -20 0 -39 -4
-42 -9z"/>
<path d="M2551 929 c-13 -10 -19 -19 -14 -19 13 0 49 27 43 33 -3 3 -16 -3
-29 -14z"/>
<path d="M3134 914 c-7 -16 -16 -43 -20 -58 l-7 -29 29 16 c30 17 159 38 182
30 6 -3 12 -14 12 -25 0 -29 24 -16 28 15 3 25 1 27 -36 27 -41 0 -68 20 -59
43 3 9 -11 12 -56 12 -58 0 -61 -1 -73 -31z"/>
<path d="M3636 935 c-3 -9 -6 -22 -5 -28 0 -7 5 -1 10 12 5 13 8 26 5 28 -2 2
-6 -3 -10 -12z"/>
<path d="M2135 919 c-27 -12 -61 -26 -75 -31 -57 -24 -75 -34 -96 -55 -13 -13
-30 -23 -39 -23 -8 0 -14 -5 -12 -11 1 -6 -7 -16 -18 -22 -23 -14 -54 -49 -55
-61 0 -5 -17 -24 -37 -43 -21 -18 -32 -33 -25 -33 6 0 12 -7 12 -15 0 -8 -5
-15 -11 -15 -6 0 -9 -7 -5 -15 3 -8 -4 -21 -17 -30 -12 -8 -21 -19 -21 -23 3
-15 -9 -32 -21 -32 -11 0 -26 -34 -29 -65 -1 -5 -12 -27 -25 -48 -13 -21 -22
-39 -20 -41 19 -17 71 -35 85 -29 11 4 15 3 10 -5 -4 -7 12 -19 41 -32 l48
-21 32 37 c18 20 33 45 33 55 0 10 5 19 10 19 6 0 10 9 10 21 0 11 14 38 31
59 18 22 29 45 26 54 -4 10 6 26 27 43 19 15 37 39 41 53 4 14 20 37 36 52 16
15 29 36 29 47 0 12 4 21 9 21 4 0 22 14 40 30 26 26 35 29 52 20 11 -6 25
-22 31 -36 15 -32 24 -30 43 6 9 17 21 30 28 30 6 0 23 9 37 20 l25 20 -39 -5
-38 -4 6 40 c5 34 3 43 -18 64 -31 31 -73 32 -141 4z"/>
<path d="M3615 870 c-4 -12 -5 -24 -2 -27 3 -2 8 5 12 17 4 12 5 24 2 27 -3 2
-8 -5 -12 -17z"/>
<path d="M2424 854 c-18 -14 -18 -15 4 -4 12 6 22 13 22 15 0 8 -5 6 -26 -11z"/>
<path d="M4870 841 c0 -12 6 -21 16 -21 9 0 14 7 12 17 -5 25 -28 28 -28 4z"/>
<path d="M4030 825 c-16 -19 -11 -19 31 0 33 14 33 14 8 15 -15 0 -32 -7 -39
-15z"/>
<path d="M3802 743 c-18 -42 -30 -78 -28 -81 9 -8 61 39 78 71 22 42 22 64 0
76 -16 9 -22 1 -50 -66z"/>
<path d="M4916 805 c4 -8 10 -12 15 -9 14 8 10 24 -6 24 -9 0 -12 -6 -9 -15z"/>
<path d="M4725 789 c-11 -17 1 -21 15 -4 8 9 8 15 2 15 -6 0 -14 -5 -17 -11z"/>
<path d="M1138 785 c-3 -6 -9 -28 -13 -50 -7 -39 -7 -40 10 -17 9 12 15 35 13
50 -2 15 -6 22 -10 17z"/>
<path d="M5040 769 c0 -6 -9 -8 -20 -4 -14 4 -20 2 -20 -9 0 -22 17 -29 40
-16 21 11 28 40 10 40 -5 0 -10 -5 -10 -11z"/>
<path d="M4930 708 c0 -18 38 -27 56 -13 21 16 19 17 -26 19 -16 0 -30 -2 -30
-6z"/>
<path d="M3051 681 c-16 -29 -13 -40 8 -34 25 6 33 28 16 43 -11 9 -16 7 -24
-9z"/>
<path d="M3138 681 c-25 -25 -23 -28 17 -33 33 -4 34 -3 18 15 -15 16 -15 19
-3 27 13 8 13 10 0 9 -8 0 -23 -8 -32 -18z"/>
<path d="M4915 654 l-16 -25 25 16 c14 10 23 21 20 26 -8 13 -10 12 -29 -17z"/>
<path d="M3548 603 c-16 -57 -16 -76 1 -57 8 8 25 114 19 114 -2 0 -11 -26
-20 -57z"/>
<path d="M3140 630 c0 -5 7 -10 16 -10 8 0 12 5 9 10 -3 6 -10 10 -16 10 -5 0
-9 -4 -9 -10z"/>
<path d="M3306 585 c-3 -9 -6 -26 -5 -38 1 -14 4 -9 9 13 9 37 7 52 -4 25z"/>
<path d="M4525 440 c-3 -5 1 -10 9 -10 8 0 18 5 21 10 3 6 -1 10 -9 10 -8 0
-18 -4 -21 -10z"/>
<path d="M2200 362 c-19 -2 -39 -8 -44 -13 -6 -5 -19 -9 -29 -9 -22 0 -66 -29
-125 -84 l-43 -40 23 -13 c68 -37 83 -37 156 6 38 23 106 57 151 75 46 19 87
38 92 43 27 27 -76 47 -181 35z"/>
<path d="M3495 324 c-3 -27 -8 -66 -11 -87 -3 -25 -1 -36 6 -32 5 3 10 21 10
38 0 18 5 49 11 71 7 26 7 42 1 48 -7 7 -12 -6 -17 -38z"/>
<path d="M4390 329 c0 -5 -5 -7 -11 -4 -6 4 -22 -4 -36 -16 -18 -17 -27 -20
-30 -11 -6 15 -23 16 -23 2 0 -21 29 -21 74 0 42 20 60 40 36 40 -5 0 -10 -5
-10 -11z"/>
<path d="M4090 226 c0 -2 8 -10 18 -17 15 -13 16 -12 3 4 -13 16 -21 21 -21
13z"/>
<path d="M3943 169 c-4 -12 -17 -22 -35 -26 -17 -3 -26 -9 -20 -15 5 -5 21 -4
38 2 21 7 30 18 32 35 2 30 -8 33 -15 4z"/>
<path d="M3991 169 c-13 -5 -21 -12 -18 -15 3 -3 18 1 34 10 31 17 21 20 -16
5z"/>
</g>
</svg>
